<svg width="24" height="25" viewBox="0 0 24 25" fill="none" xmlns="http://www.w3.org/2000/svg">
<path d="M9.16006 11.4685C9.06006 11.4585 8.94006 11.4585 8.83006 11.4685C6.45006 11.3885 4.56006 9.43853 4.56006 7.03853C4.56006 4.58853 6.54006 2.59853 9.00006 2.59853C11.4501 2.59853 13.4401 4.58853 13.4401 7.03853C13.4301 9.43853 11.5401 11.3885 9.16006 11.4685Z" stroke="black" stroke-width="1.5" stroke-linecap="round" stroke-linejoin="round"/>
<path d="M16.41 4.59853C18.35 4.59853 19.91 6.16853 19.91 8.09853C19.91 9.98853 18.41 11.5285 16.54 11.5985C16.46 11.5885 16.37 11.5885 16.28 11.5985" stroke="black" stroke-width="1.5" stroke-linecap="round" stroke-linejoin="round"/>
<path d="M4.15997 15.1585C1.73997 16.7785 1.73997 19.4185 4.15997 21.0285C6.90997 22.8685 11.42 22.8685 14.17 21.0285C16.59 19.4085 16.59 16.7685 14.17 15.1585C11.43 13.3285 6.91997 13.3285 4.15997 15.1585Z" stroke="black" stroke-width="1.5" stroke-linecap="round" stroke-linejoin="round"/>
<path d="M18.3401 20.5985C19.0601 20.4485 19.7401 20.1585 20.3001 19.7285C21.8601 18.5585 21.8601 16.6285 20.3001 15.4585C19.7501 15.0385 19.0801 14.7585 18.3701 14.5985" stroke="black" stroke-width="1.5" stroke-linecap="round" stroke-linejoin="round"/>
</svg>
