<svg width="24" height="25" viewBox="0 0 24 25" fill="none" xmlns="http://www.w3.org/2000/svg">
<path d="M16.9 19.6085C16.59 19.6085 16.28 19.5185 16.01 19.3385L15.05 18.7085C14.78 18.5285 14.65 18.1886 14.74 17.8786C14.81 17.6486 14.84 17.3785 14.84 17.0785V13.0085C14.84 11.3785 13.82 10.3585 12.19 10.3585H5.39999C5.27999 10.3585 5.17 10.3686 5.06 10.3786C4.85 10.3886 4.65001 10.3185 4.49001 10.1785C4.33001 10.0385 4.25 9.83856 4.25 9.62856V6.85854C4.25 3.91854 6.31 1.85854 9.25 1.85854H17.75C20.69 1.85854 22.75 3.91854 22.75 6.85854V11.9585C22.75 13.4085 22.26 14.6885 21.36 15.5685C20.64 16.2985 19.64 16.7685 18.5 16.9085V18.0185C18.5 18.6185 18.17 19.1586 17.65 19.4386C17.41 19.5486 17.15 19.6085 16.9 19.6085ZM16.3 17.7285L16.95 18.0985C17.01 18.0685 17.01 18.0185 17.01 18.0085V16.1985C17.01 15.7885 17.35 15.4485 17.76 15.4485C18.81 15.4485 19.7 15.1186 20.31 14.4986C20.94 13.8786 21.26 12.9985 21.26 11.9485V6.84853C21.26 4.71853 19.89 3.34853 17.76 3.34853H9.25999C7.12999 3.34853 5.75999 4.71853 5.75999 6.84853V8.84853H12.2C14.64 8.84853 16.35 10.5585 16.35 12.9986V17.0685C16.34 17.2985 16.33 17.5185 16.3 17.7285Z" fill="black"/>
<path d="M6.07001 23.3485C5.85001 23.3485 5.62 23.2986 5.41 23.1886C4.94 22.9386 4.64999 22.4585 4.64999 21.9185V21.1585C3.76999 21.0185 2.99 20.6485 2.41 20.0685C1.65 19.3085 1.25 18.2685 1.25 17.0685V12.9986C1.25 10.7386 2.72999 9.07855 4.92999 8.86855C5.08999 8.85855 5.23999 8.84853 5.39999 8.84853H12.19C14.63 8.84853 16.34 10.5586 16.34 12.9986V17.0685C16.34 17.5085 16.29 17.9185 16.18 18.2885C15.73 20.0885 14.2 21.2185 12.19 21.2185H9.7L6.87 23.0985C6.63 23.2685 6.35001 23.3485 6.07001 23.3485ZM5.39999 10.3485C5.27999 10.3485 5.17 10.3585 5.06 10.3685C3.62 10.4985 2.75 11.4886 2.75 12.9986V17.0685C2.75 17.8685 3 18.5385 3.47 19.0085C3.93 19.4685 4.59999 19.7185 5.39999 19.7185C5.80999 19.7185 6.14999 20.0585 6.14999 20.4685V21.7785L9.05 19.8485C9.17 19.7685 9.32 19.7185 9.47 19.7185H12.19C13.51 19.7185 14.44 19.0585 14.73 17.8985C14.8 17.6485 14.84 17.3685 14.84 17.0685V12.9986C14.84 11.3686 13.82 10.3485 12.19 10.3485H5.39999Z" fill="black"/>
</svg>
