<svg width="24" height="23" viewBox="0 0 24 23" fill="none" xmlns="http://www.w3.org/2000/svg">
<path d="M11.4923 17.4711H9.35581C8.31132 17.4711 7.45673 18.3257 7.45673 19.3701V19.6075H6.5072C6.11789 19.6075 5.79504 19.9304 5.79504 20.3197C5.79504 20.709 6.11789 21.0318 6.5072 21.0318H17.9016C18.291 21.0318 18.6138 20.709 18.6138 20.3197C18.6138 19.9304 18.291 19.6075 17.9016 19.6075H16.9521V19.3701C16.9521 18.3257 16.0975 17.4711 15.053 17.4711H12.9166V15.2966C12.6792 15.3251 12.4418 15.3346 12.2044 15.3346C11.967 15.3346 11.7297 15.3251 11.4923 15.2966V17.4711Z" fill="#A926E6"/>
<path d="M18.3572 11.1946C18.9839 10.9572 19.5347 10.5679 19.9714 10.1311C20.8545 9.15305 21.4337 7.98512 21.4337 6.61778C21.4337 5.25045 20.3608 4.17747 18.9934 4.17747H18.4617C17.8445 2.91459 16.5531 2.04102 15.0528 2.04102H9.35562C7.85535 2.04102 6.56398 2.91459 5.94678 4.17747H5.41504C4.04771 4.17747 2.97473 5.25045 2.97473 6.61778C2.97473 7.98512 3.55395 9.15305 4.43702 10.1311C4.87381 10.5679 5.42454 10.9572 6.05123 11.1946C7.03875 13.6254 9.41259 15.3345 12.2042 15.3345C14.9959 15.3345 17.3697 13.6254 18.3572 11.1946ZM14.9009 8.16553L14.3122 8.88718C14.2173 8.99163 14.1508 9.20052 14.1603 9.34295L14.2173 10.2735C14.2552 10.8432 13.8469 11.1376 13.3152 10.9287L12.4511 10.5868C12.3182 10.5394 12.0903 10.5394 11.9574 10.5868L11.0933 10.9287C10.5615 11.1376 10.1532 10.8432 10.1912 10.2735L10.2482 9.34295C10.2577 9.20052 10.1912 8.99163 10.0963 8.88718L9.50755 8.16553C9.13723 7.72874 9.29865 7.24448 9.84938 7.10205L10.7514 6.87416C10.8939 6.83618 11.0648 6.70324 11.1408 6.5798L11.644 5.80118C11.9574 5.31692 12.4511 5.31692 12.7645 5.80118L13.2677 6.5798C13.3437 6.70324 13.5146 6.83618 13.657 6.87416L14.5591 7.10205C15.1098 7.24448 15.2712 7.72874 14.9009 8.16553Z" fill="#A926E6"/>
</svg>
