<svg width="29" height="30" viewBox="0 0 29 30" fill="none" xmlns="http://www.w3.org/2000/svg">
<g clip-path="url(#clip0_78_461)">
<path d="M28.2222 14.9998C28.2222 7.20643 21.9045 0.888672 14.1111 0.888672C6.31775 0.888672 0 7.20643 0 14.9998C0 22.0429 5.1602 27.8809 11.9062 28.9395V19.0788H8.32335V14.9998H11.9062V11.8909C11.9062 8.35433 14.013 6.40083 17.2362 6.40083C18.7796 6.40083 20.395 6.67643 20.395 6.67643V10.1491H18.6156C16.8628 10.1491 16.316 11.2369 16.316 12.354V14.9998H20.2296L19.604 19.0788H16.316V28.9395C23.062 27.8809 28.2222 22.0429 28.2222 14.9998Z" fill="white"/>
</g>
<defs>
<clipPath id="clip0_78_461">
<rect width="28.2222" height="28.2222" fill="white" transform="translate(0 0.888672)"/>
</clipPath>
</defs>
</svg>
