<svg width="329" height="98" viewBox="0 0 329 98" fill="none" xmlns="http://www.w3.org/2000/svg">
<rect x="1.21852" y="1.21852" width="326.563" height="95.0444" rx="10.9667" fill="black"/>
<rect x="1.21852" y="1.21852" width="326.563" height="95.0444" rx="10.9667" stroke="#A6A6A6" stroke-width="2.43704"/>
<g filter="url(#filter0_ii_80_1878)">
<path d="M25.4328 18.3703C24.7236 19.1209 24.3044 20.2858 24.3044 21.7943V75.6918C24.3044 77.2028 24.7236 78.3653 25.4328 79.1159L25.6131 79.2913L55.8056 49.0989V48.7431V48.3873L25.6131 18.1924L25.4328 18.3703Z" fill="url(#paint0_linear_80_1878)"/>
<path d="M65.8678 59.166L55.8053 49.0986V48.7428V48.387L65.8703 38.322L66.0969 38.4512L78.0213 45.2261C81.4259 47.1612 81.4259 50.3269 78.0213 52.2643L66.0969 59.0393L65.8678 59.166Z" fill="url(#paint1_linear_80_1878)"/>
<g filter="url(#filter1_i_80_1878)">
<path d="M66.0973 59.0367L55.8032 48.7427L25.4329 79.1155C26.5539 80.3047 28.4085 80.451 30.497 79.2666L66.0973 59.0367Z" fill="url(#paint2_linear_80_1878)"/>
</g>
<path d="M66.0973 38.449L30.497 18.2216C28.4085 17.0348 26.5539 17.1834 25.4329 18.3727L55.8056 48.7455L66.0973 38.449Z" fill="url(#paint3_linear_80_1878)"/>
</g>
<path d="M166.05 53.0085C160.318 53.0085 155.646 57.3684 155.646 63.3732C155.646 69.3415 160.318 73.7379 166.05 73.7379C171.784 73.7379 176.456 69.3415 176.456 63.3732C176.454 57.3684 171.782 53.0085 166.05 53.0085ZM166.05 69.6583C162.909 69.6583 160.201 67.0678 160.201 63.3757C160.201 59.6446 162.911 57.093 166.05 57.093C169.191 57.093 171.899 59.6446 171.899 63.3757C171.899 67.0653 169.191 69.6583 166.05 69.6583ZM143.351 53.0085C137.619 53.0085 132.948 57.3684 132.948 63.3732C132.948 69.3415 137.619 73.7379 143.351 73.7379C149.086 73.7379 153.757 69.3415 153.757 63.3732C153.757 57.3684 149.086 53.0085 143.351 53.0085ZM143.351 69.6583C140.21 69.6583 137.502 67.0678 137.502 63.3757C137.502 59.6446 140.212 57.093 143.351 57.093C146.493 57.093 149.2 59.6446 149.2 63.3757C149.203 67.0653 146.493 69.6583 143.351 69.6583ZM116.354 56.1913V60.5877H126.877C126.563 63.0613 125.739 64.8671 124.481 66.1222C122.951 67.6527 120.555 69.3415 116.354 69.3415C109.876 69.3415 104.812 64.119 104.812 57.6413C104.812 51.1637 109.876 45.9411 116.354 45.9411C119.848 45.9411 122.4 47.3156 124.284 49.0824L127.386 45.9801C124.754 43.4675 121.262 41.5447 116.354 41.5447C107.481 41.5447 100.021 48.7681 100.021 57.6413C100.021 66.5146 107.481 73.7379 116.354 73.7379C121.143 73.7379 124.757 72.166 127.581 69.2221C130.486 66.3172 131.39 62.2327 131.39 58.9354C131.39 57.9167 131.312 56.9736 131.154 56.1888H116.354V56.1913ZM226.771 59.6056C225.908 57.2904 223.276 53.0085 217.898 53.0085C212.558 53.0085 208.12 57.21 208.12 63.3732C208.12 69.1831 212.519 73.7379 218.407 73.7379C223.157 73.7379 225.906 70.833 227.046 69.1441L223.513 66.7875C222.336 68.5154 220.725 69.6535 218.407 69.6535C216.092 69.6535 214.442 68.5934 213.382 66.5121L227.241 60.7802L226.771 59.6056ZM212.636 63.0613C212.519 59.0548 215.739 57.015 218.056 57.015C219.862 57.015 221.393 57.9191 221.904 59.2132L212.636 63.0613ZM201.37 73.1116H205.922V42.6462H201.37V73.1116ZM193.908 55.3261H193.752C192.731 54.1076 190.766 53.0085 188.295 53.0085C183.112 53.0085 178.362 57.5633 178.362 63.4146C178.362 69.2245 183.112 73.7404 188.295 73.7404C190.769 73.7404 192.731 72.6413 193.752 71.3862H193.908V72.8777C193.908 76.8427 191.787 78.9629 188.373 78.9629C185.585 78.9629 183.857 76.9621 183.151 75.2733L179.185 76.9231C180.324 79.6697 183.345 83.0474 188.373 83.0474C193.713 83.0474 198.228 79.9061 198.228 72.2489V53.6397H193.91V55.3261H193.908ZM188.687 69.6583C185.546 69.6583 182.917 67.0263 182.917 63.4146C182.917 59.7615 185.546 57.093 188.687 57.093C191.787 57.093 194.222 59.7615 194.222 63.4146C194.222 67.0263 191.787 69.6583 188.687 69.6583ZM248.105 42.6462H237.209V73.1116H241.754V61.5698H248.102C253.142 61.5698 258.099 57.9216 258.099 52.1092C258.099 46.2969 253.145 42.6462 248.105 42.6462ZM248.222 57.3294H241.754V46.8867H248.222C251.622 46.8867 253.552 49.7014 253.552 52.1092C253.552 54.4683 251.622 57.3294 248.222 57.3294ZM276.326 52.9549C273.033 52.9549 269.624 54.4049 268.213 57.6194L272.249 59.3034C273.111 57.6194 274.72 57.0686 276.404 57.0686C278.755 57.0686 281.146 58.4797 281.185 60.9874V61.3017C280.361 60.8314 278.597 60.1271 276.443 60.1271C272.093 60.1271 267.662 62.5178 267.662 66.9849C267.662 71.0621 271.23 73.6868 275.227 73.6868C278.283 73.6868 279.969 72.3147 281.027 70.7063H281.183V73.058H285.574V61.3773C285.577 55.9719 281.536 52.9549 276.326 52.9549ZM275.775 69.651C274.288 69.651 272.21 68.9053 272.21 67.0629C272.21 64.7112 274.798 63.8094 277.033 63.8094C279.028 63.8094 279.972 64.2408 281.185 64.8281C280.832 67.6527 278.402 69.651 275.775 69.651ZM301.566 53.6202L296.353 66.8289H296.197L290.787 53.6202H285.889L294.002 72.0808L289.376 82.3504H294.119L306.623 53.6202H301.566ZM260.609 73.1116H265.154V42.6462H260.609V73.1116Z" fill="white"/>
<path d="M115.559 24.9624C115.559 27.0047 114.955 28.6302 113.744 29.8438C112.369 31.2865 110.576 32.0079 108.373 32.0079C106.262 32.0079 104.466 31.2768 102.992 29.8146C101.515 28.3499 100.776 26.5367 100.776 24.3727C100.776 22.2061 101.515 20.393 102.992 18.9308C104.466 17.4661 106.262 16.735 108.373 16.735C109.421 16.735 110.422 16.9397 111.373 17.3467C112.325 17.7561 113.088 18.2996 113.659 18.9795L112.374 20.2663C111.407 19.1087 110.074 18.5311 108.37 18.5311C106.83 18.5311 105.499 19.0721 104.376 20.1541C103.252 21.2362 102.692 22.6424 102.692 24.3702C102.692 26.0981 103.252 27.5043 104.376 28.5863C105.499 29.6683 106.83 30.2094 108.37 30.2094C110.003 30.2094 111.365 29.6659 112.455 28.5765C113.161 27.8674 113.571 26.8804 113.68 25.6155H108.37V23.8584H115.455C115.528 24.2411 115.559 24.6091 115.559 24.9624Z" fill="white"/>
<path d="M126.794 18.8553H120.136V23.4906H126.141V25.2477H120.136V29.8829H126.794V31.6815H118.257V17.0592H126.794V18.8553Z" fill="white"/>
<path d="M134.717 31.6815H132.838V18.8553H128.754V17.0592H138.801V18.8553H134.717V31.6815Z" fill="white"/>
<path d="M146.071 31.6815V17.0592H147.95V31.6815H146.071Z" fill="white"/>
<path d="M156.283 31.6815H154.404V18.8553H150.319V17.0592H160.367V18.8553H156.283V31.6815Z" fill="white"/>
<path d="M179.388 29.7927C177.95 31.2696 176.163 32.008 174.026 32.008C171.889 32.008 170.102 31.2696 168.667 29.7927C167.229 28.3159 166.513 26.5076 166.513 24.3703C166.513 22.2331 167.229 20.4248 168.667 18.9479C170.102 17.4711 171.889 16.7302 174.026 16.7302C176.151 16.7302 177.935 17.4735 179.378 18.9577C180.821 20.4418 181.542 22.2452 181.542 24.3703C181.542 26.5076 180.823 28.3159 179.388 29.7927ZM170.054 28.5669C171.136 29.6636 172.459 30.2095 174.026 30.2095C175.593 30.2095 176.919 29.6611 177.998 28.5669C179.081 27.4702 179.624 26.0714 179.624 24.3703C179.624 22.6693 179.081 21.2704 177.998 20.1738C176.919 19.0771 175.593 18.5312 174.026 18.5312C172.459 18.5312 171.136 19.0795 170.054 20.1738C168.974 21.2704 168.431 22.6693 168.431 24.3703C168.431 26.0714 168.974 27.4702 170.054 28.5669Z" fill="white"/>
<path d="M184.179 31.6815V17.0592H186.465L193.571 28.4329H193.652L193.571 25.6157V17.0592H195.45V31.6815H193.488L186.053 19.7546H185.972L186.053 22.5718V31.6815H184.179Z" fill="white"/>
<path d="M115.559 24.9624C115.559 27.0047 114.955 28.6302 113.744 29.8438C112.369 31.2865 110.576 32.0079 108.373 32.0079C106.262 32.0079 104.466 31.2768 102.992 29.8146C101.515 28.3499 100.776 26.5367 100.776 24.3727C100.776 22.2061 101.515 20.393 102.992 18.9308C104.466 17.4661 106.262 16.735 108.373 16.735C109.421 16.735 110.422 16.9397 111.373 17.3467C112.325 17.7561 113.088 18.2996 113.659 18.9795L112.374 20.2663C111.407 19.1087 110.074 18.5311 108.37 18.5311C106.83 18.5311 105.499 19.0721 104.376 20.1541C103.252 21.2362 102.692 22.6424 102.692 24.3702C102.692 26.0981 103.252 27.5043 104.376 28.5863C105.499 29.6683 106.83 30.2094 108.37 30.2094C110.003 30.2094 111.365 29.6659 112.455 28.5765C113.161 27.8674 113.571 26.8804 113.68 25.6155H108.37V23.8584H115.455C115.528 24.2411 115.559 24.6091 115.559 24.9624Z" stroke="white" stroke-width="0.487407" stroke-miterlimit="10"/>
<path d="M126.794 18.8553H120.136V23.4906H126.141V25.2477H120.136V29.8829H126.794V31.6815H118.257V17.0592H126.794V18.8553Z" stroke="white" stroke-width="0.487407" stroke-miterlimit="10"/>
<path d="M134.717 31.6815H132.838V18.8553H128.754V17.0592H138.801V18.8553H134.717V31.6815Z" stroke="white" stroke-width="0.487407" stroke-miterlimit="10"/>
<path d="M146.071 31.6815V17.0592H147.95V31.6815H146.071Z" stroke="white" stroke-width="0.487407" stroke-miterlimit="10"/>
<path d="M156.283 31.6815H154.404V18.8553H150.319V17.0592H160.367V18.8553H156.283V31.6815Z" stroke="white" stroke-width="0.487407" stroke-miterlimit="10"/>
<path d="M179.388 29.7927C177.95 31.2696 176.163 32.008 174.026 32.008C171.889 32.008 170.102 31.2696 168.667 29.7927C167.229 28.3159 166.513 26.5076 166.513 24.3703C166.513 22.2331 167.229 20.4248 168.667 18.9479C170.102 17.4711 171.889 16.7302 174.026 16.7302C176.151 16.7302 177.935 17.4735 179.378 18.9577C180.821 20.4418 181.542 22.2452 181.542 24.3703C181.542 26.5076 180.823 28.3159 179.388 29.7927ZM170.054 28.5669C171.136 29.6636 172.459 30.2095 174.026 30.2095C175.593 30.2095 176.919 29.6611 177.998 28.5669C179.081 27.4702 179.624 26.0714 179.624 24.3703C179.624 22.6693 179.081 21.2704 177.998 20.1738C176.919 19.0771 175.593 18.5312 174.026 18.5312C172.459 18.5312 171.136 19.0795 170.054 20.1738C168.974 21.2704 168.431 22.6693 168.431 24.3703C168.431 26.0714 168.974 27.4702 170.054 28.5669Z" stroke="white" stroke-width="0.487407" stroke-miterlimit="10"/>
<path d="M184.179 31.6815V17.0592H186.465L193.571 28.4329H193.652L193.571 25.6157V17.0592H195.45V31.6815H193.488L186.053 19.7546H185.972L186.053 22.5718V31.6815H184.179Z" stroke="white" stroke-width="0.487407" stroke-miterlimit="10"/>
<defs>
<filter id="filter0_ii_80_1878" x="24.3044" y="17.4026" width="56.2703" height="62.6821" filterUnits="userSpaceOnUse" color-interpolation-filters="sRGB">
<feFlood flood-opacity="0" result="BackgroundImageFix"/>
<feBlend mode="normal" in="SourceGraphic" in2="BackgroundImageFix" result="shape"/>
<feColorMatrix in="SourceAlpha" type="matrix" values="0 0 0 0 0 0 0 0 0 0 0 0 0 0 0 0 0 0 127 0" result="hardAlpha"/>
<feOffset dy="-0.365556"/>
<feComposite in2="hardAlpha" operator="arithmetic" k2="-1" k3="1"/>
<feColorMatrix type="matrix" values="0 0 0 0 0 0 0 0 0 0 0 0 0 0 0 0 0 0 0.12 0"/>
<feBlend mode="normal" in2="shape" result="effect1_innerShadow_80_1878"/>
<feColorMatrix in="SourceAlpha" type="matrix" values="0 0 0 0 0 0 0 0 0 0 0 0 0 0 0 0 0 0 127 0" result="hardAlpha"/>
<feOffset dy="0.365556"/>
<feComposite in2="hardAlpha" operator="arithmetic" k2="-1" k3="1"/>
<feColorMatrix type="matrix" values="0 0 0 0 1 0 0 0 0 1 0 0 0 0 1 0 0 0 0.25 0"/>
<feBlend mode="normal" in2="effect1_innerShadow_80_1878" result="effect2_innerShadow_80_1878"/>
</filter>
<filter id="filter1_i_80_1878" x="25.4329" y="48.7427" width="40.6644" height="31.342" filterUnits="userSpaceOnUse" color-interpolation-filters="sRGB">
<feFlood flood-opacity="0" result="BackgroundImageFix"/>
<feBlend mode="normal" in="SourceGraphic" in2="BackgroundImageFix" result="shape"/>
<feColorMatrix in="SourceAlpha" type="matrix" values="0 0 0 0 0 0 0 0 0 0 0 0 0 0 0 0 0 0 127 0" result="hardAlpha"/>
<feOffset dy="-0.365556"/>
<feComposite in2="hardAlpha" operator="arithmetic" k2="-1" k3="1"/>
<feColorMatrix type="matrix" values="0 0 0 0 0 0 0 0 0 0 0 0 0 0 0 0 0 0 0.08 0"/>
<feBlend mode="normal" in2="shape" result="effect1_innerShadow_80_1878"/>
</filter>
<linearGradient id="paint0_linear_80_1878" x1="53.1292" y1="21.2241" x2="12.2309" y2="62.1224" gradientUnits="userSpaceOnUse">
<stop stop-color="#00A0FF"/>
<stop offset="0.0066" stop-color="#00A1FF"/>
<stop offset="0.2601" stop-color="#00BEFF"/>
<stop offset="0.5122" stop-color="#00D2FF"/>
<stop offset="0.7604" stop-color="#00DFFF"/>
<stop offset="1" stop-color="#00E3FF"/>
</linearGradient>
<linearGradient id="paint1_linear_80_1878" x1="82.4531" y1="48.7428" x2="23.4868" y2="48.7428" gradientUnits="userSpaceOnUse">
<stop stop-color="#FFE000"/>
<stop offset="0.4087" stop-color="#FFBD00"/>
<stop offset="0.7754" stop-color="#FFA500"/>
<stop offset="1" stop-color="#FF9C00"/>
</linearGradient>
<linearGradient id="paint2_linear_80_1878" x1="60.5069" y1="54.333" x2="5.04364" y2="109.796" gradientUnits="userSpaceOnUse">
<stop stop-color="#FF3A44"/>
<stop offset="1" stop-color="#C31162"/>
</linearGradient>
<linearGradient id="paint3_linear_80_1878" x1="17.784" y1="0.43076" x2="42.5499" y2="25.1967" gradientUnits="userSpaceOnUse">
<stop stop-color="#32A071"/>
<stop offset="0.0685" stop-color="#2DA771"/>
<stop offset="0.4762" stop-color="#15CF74"/>
<stop offset="0.8009" stop-color="#06E775"/>
<stop offset="1" stop-color="#00F076"/>
</linearGradient>
</defs>
</svg>
