<svg width="24" height="25" viewBox="0 0 24 25" fill="none" xmlns="http://www.w3.org/2000/svg">
<path d="M10 21.5985H5C3.89543 21.5985 3 20.7031 3 19.5985V12.8955C3 12.3837 3.19615 11.8915 3.54809 11.52L10.5481 4.13109C11.3369 3.29841 12.663 3.29841 13.4519 4.13109L20.4519 11.52C20.8038 11.8915 21 12.3837 21 12.8955V19.5985C21 20.7031 20.1046 21.5985 19 21.5985H14M10 21.5985V16.0985C10 15.8224 10.2239 15.5985 10.5 15.5985H13.5C13.7761 15.5985 14 15.8224 14 16.0985V21.5985M10 21.5985H14" stroke="black" stroke-width="1.5"/>
</svg>
