<svg width="29" height="30" viewBox="0 0 29 30" fill="none" xmlns="http://www.w3.org/2000/svg">
<path d="M14.5556 3.42977C18.3259 3.42977 18.7724 3.44631 20.2551 3.51246C21.6332 3.57309 22.3773 3.8046 22.8734 3.99753C23.5293 4.25109 24.0034 4.55977 24.494 5.05035C24.9901 5.54644 25.2932 6.01497 25.5468 6.67092C25.7397 7.16701 25.9712 7.91667 26.0319 9.28919C26.098 10.7775 26.1145 11.224 26.1145 14.9888C26.1145 18.7591 26.098 19.2056 26.0319 20.6883C25.9712 22.0664 25.7397 22.8105 25.5468 23.3066C25.2932 23.9625 24.9845 24.4366 24.494 24.9272C23.9979 25.4233 23.5293 25.7264 22.8734 25.98C22.3773 26.1729 21.6276 26.4044 20.2551 26.4651C18.7668 26.5312 18.3204 26.5477 14.5556 26.5477C10.7852 26.5477 10.3388 26.5312 8.85599 26.4651C7.47795 26.4044 6.73381 26.1729 6.23772 25.98C5.58177 25.7264 5.10772 25.4178 4.61714 24.9272C4.12105 24.4311 3.81788 23.9625 3.56432 23.3066C3.3714 22.8105 3.13989 22.0609 3.07925 20.6883C3.01311 19.2 2.99657 18.7536 2.99657 14.9888C2.99657 11.2184 3.01311 10.772 3.07925 9.28919C3.13989 7.91115 3.3714 7.16701 3.56432 6.67092C3.81788 6.01497 4.12656 5.54093 4.61714 5.05035C5.11324 4.55425 5.58177 4.25109 6.23772 3.99753C6.73381 3.8046 7.48346 3.57309 8.85599 3.51246C10.3388 3.44631 10.7852 3.42977 14.5556 3.42977ZM14.5556 0.888672C10.7246 0.888672 10.2451 0.905208 8.74023 0.971354C7.24093 1.0375 6.21016 1.28003 5.31719 1.6273C4.38563 1.9911 3.59739 2.47066 2.81467 3.2589C2.02643 4.04162 1.54687 4.82986 1.18307 5.7559C0.835806 6.65438 0.593271 7.67964 0.527125 9.17895C0.460979 10.6893 0.444443 11.1688 0.444443 14.9998C0.444443 18.8307 0.460979 19.3103 0.527125 20.8151C0.593271 22.3144 0.835806 23.3452 1.18307 24.2382C1.54687 25.1697 2.02643 25.9579 2.81467 26.7407C3.59739 27.5234 4.38563 28.0085 5.31167 28.3668C6.21016 28.714 7.23542 28.9566 8.73472 29.0227C10.2395 29.0888 10.7191 29.1054 14.55 29.1054C18.381 29.1054 18.8605 29.0888 20.3654 29.0227C21.8647 28.9566 22.8954 28.714 23.7884 28.3668C24.7145 28.0085 25.5027 27.5234 26.2854 26.7407C27.0681 25.9579 27.5532 25.1697 27.9115 24.2437C28.2588 23.3452 28.5013 22.3199 28.5674 20.8206C28.6336 19.3158 28.6501 18.8362 28.6501 15.0053C28.6501 11.1744 28.6336 10.6948 28.5674 9.18997C28.5013 7.69067 28.2588 6.6599 27.9115 5.76693C27.5642 4.82986 27.0847 4.04162 26.2964 3.2589C25.5137 2.47617 24.7255 1.9911 23.7994 1.63281C22.901 1.28555 21.8757 1.04301 20.3764 0.976866C18.8661 0.905208 18.3865 0.888672 14.5556 0.888672Z" fill="white"/>
<path d="M14.5555 7.75098C10.5537 7.75098 7.30707 10.9976 7.30707 14.9995C7.30707 19.0013 10.5537 22.2479 14.5555 22.2479C18.5574 22.2479 21.804 19.0013 21.804 14.9995C21.804 10.9976 18.5574 7.75098 14.5555 7.75098ZM14.5555 19.7013C11.9593 19.7013 9.85368 17.5957 9.85368 14.9995C9.85368 12.4032 11.9593 10.2976 14.5555 10.2976C17.1518 10.2976 19.2574 12.4032 19.2574 14.9995C19.2574 17.5957 17.1518 19.7013 14.5555 19.7013Z" fill="white"/>
<path d="M23.7829 7.46469C23.7829 8.40176 23.0222 9.15693 22.0907 9.15693C21.1536 9.15693 20.3984 8.39625 20.3984 7.46469C20.3984 6.52763 21.1591 5.77246 22.0907 5.77246C23.0222 5.77246 23.7829 6.53314 23.7829 7.46469Z" fill="white"/>
</svg>
