<svg width="40" height="40" viewBox="0 0 40 40" fill="none" xmlns="http://www.w3.org/2000/svg">
<circle cx="19.6233" cy="19.9538" r="19.6186" fill="#4CAE00" fill-opacity="0.1"/>
<path d="M22.7581 31.2139C22.693 31.2139 22.617 31.203 22.5519 31.1813C20.3707 30.5628 18.081 30.5628 15.8997 31.1813C15.4982 31.2899 15.075 31.062 14.9665 30.6604C14.8471 30.2589 15.0859 29.8357 15.4874 29.7272C17.9399 29.0327 20.5226 29.0327 22.9752 29.7272C23.3767 29.8466 23.6154 30.2589 23.496 30.6604C23.3875 30.9969 23.0837 31.2139 22.7581 31.2139Z" fill="#4CAE00"/>
<path d="M27.0444 14.2417C25.9159 11.9628 23.7346 10.2808 21.2062 9.72734C18.5583 9.14134 15.8453 9.77075 13.7726 11.4419C11.6891 13.1023 10.5062 15.5873 10.5062 18.246C10.5062 21.0567 12.1883 23.9975 14.7276 25.7013V26.602C14.7167 26.9058 14.7059 27.3724 15.0749 27.7523C15.4547 28.1429 16.019 28.1863 16.4639 28.1863H22.0309C22.6169 28.1863 23.0618 28.0236 23.3657 27.7197C23.778 27.2965 23.7672 26.7539 23.7563 26.4609V25.7013C27.1204 23.4332 29.2365 18.6476 27.0444 14.2417ZM21.0868 19.9498L19.9256 21.9682C19.7737 22.2287 19.5024 22.3806 19.2203 22.3806C19.0792 22.3806 18.9381 22.348 18.8187 22.2721C18.4281 22.0442 18.2979 21.545 18.5149 21.1652L19.4373 19.5591H18.5257C17.9832 19.5591 17.5382 19.3204 17.2995 18.9189C17.0607 18.5065 17.0824 18.0073 17.3537 17.5298L18.5149 15.5114C18.7428 15.1207 19.242 14.9905 19.6218 15.2075C20.0124 15.4354 20.1427 15.9346 19.9256 16.3144L19.0032 17.9205H19.9148C20.4574 17.9205 20.9023 18.1592 21.141 18.5607C21.3798 18.9731 21.3581 19.4832 21.0868 19.9498Z" fill="#4CAE00"/>
</svg>
