<svg width="29" height="30" viewBox="0 0 29 30" fill="none" xmlns="http://www.w3.org/2000/svg">
<path d="M26.7998 0.888672H2.75025C1.59821 0.888672 0.666656 1.79818 0.666656 2.92266V27.0714C0.666656 28.1959 1.59821 29.1109 2.75025 29.1109H26.7998C27.9518 29.1109 28.8889 28.1959 28.8889 27.0769V2.92266C28.8889 1.79818 27.9518 0.888672 26.7998 0.888672ZM9.03962 24.9382H4.85038V11.4665H9.03962V24.9382ZM6.945 9.63095C5.60003 9.63095 4.51414 8.54505 4.51414 7.2056C4.51414 5.86615 5.60003 4.78025 6.945 4.78025C8.28445 4.78025 9.37035 5.86615 9.37035 7.2056C9.37035 8.53954 8.28445 9.63095 6.945 9.63095ZM24.7162 24.9382H20.5325V18.3898C20.5325 16.8298 20.5049 14.8179 18.3552 14.8179C16.1779 14.8179 15.8471 16.5211 15.8471 18.2795V24.9382H11.6689V11.4665H15.6818V13.3076H15.7369C16.2936 12.2492 17.6606 11.1303 19.6946 11.1303C23.9335 11.1303 24.7162 13.9194 24.7162 17.5464V24.9382V24.9382Z" fill="white"/>
</svg>
