<svg width="27" height="28" viewBox="0 0 27 28" fill="none" xmlns="http://www.w3.org/2000/svg">
<path d="M19.2406 5.47444L19.1647 9.5873C19.1538 10.1516 19.5119 10.9004 19.9677 11.2368L22.659 13.2769C24.3844 14.5791 24.1022 16.1744 22.0404 16.8255L18.5352 17.9215C17.9492 18.106 17.3307 18.7463 17.1788 19.3431L16.3432 22.5336C15.6812 25.0512 14.0317 25.3008 12.6644 23.087L10.7545 19.9942C10.4072 19.4299 9.58247 19.0067 8.93136 19.0393L5.30684 19.2237C2.71325 19.354 1.97532 17.8564 3.66821 15.8814L5.81688 13.3854C6.2184 12.9188 6.40288 12.0507 6.2184 11.4647L5.11151 7.94867C4.47125 5.88681 5.62154 4.74737 7.67254 5.42018L10.8738 6.47281C11.4164 6.64644 12.2303 6.52707 12.6861 6.19067L16.0285 3.78155C17.8407 2.49018 19.284 3.24981 19.2406 5.47444Z" fill="#FDAB0C"/>
<path d="M23.7441 23.1953L20.456 19.9072C20.1413 19.5925 19.6204 19.5925 19.3057 19.9072C18.991 20.2219 18.991 20.7428 19.3057 21.0575L22.5938 24.3456C22.7566 24.5084 22.9628 24.5843 23.169 24.5843C23.3752 24.5843 23.5814 24.5084 23.7441 24.3456C24.0588 24.0309 24.0588 23.51 23.7441 23.1953Z" fill="#FDAB0C"/>
</svg>
