<svg width="204" height="61" viewBox="0 0 204 61" fill="none" xmlns="http://www.w3.org/2000/svg">
<rect x="0.755556" y="0.755556" width="202.489" height="58.9333" rx="6.8" fill="black"/>
<rect x="0.755556" y="0.755556" width="202.489" height="58.9333" rx="6.8" stroke="#A6A6A6" stroke-width="1.51111"/>
<g filter="url(#filter0_ii_171_859)">
<path d="M15.7697 11.3903C15.33 11.8558 15.0701 12.5781 15.0701 13.5135V46.9332C15.0701 47.8701 15.33 48.5909 15.7697 49.0563L15.8815 49.1651L34.6027 30.4439V30.2233V30.0027L15.8815 11.28L15.7697 11.3903Z" fill="url(#paint0_linear_171_859)"/>
<path d="M40.8422 36.6865L34.6028 30.4441V30.2235V30.0029L40.8437 23.762L40.9842 23.8421L48.3781 28.0429C50.4891 29.2428 50.4891 31.2057 48.3781 32.407L40.9842 36.6079L40.8422 36.6865Z" fill="url(#paint1_linear_171_859)"/>
<g filter="url(#filter1_i_171_859)">
<path d="M40.9842 36.6068L34.6012 30.2239L15.7698 49.0569C16.4649 49.7943 17.6148 49.8849 18.9099 49.1505L40.9842 36.6068Z" fill="url(#paint2_linear_171_859)"/>
</g>
<path d="M40.9842 23.8406L18.9099 11.2984C17.6148 10.5625 16.4649 10.6546 15.7698 11.3921L34.6028 30.225L40.9842 23.8406Z" fill="url(#paint3_linear_171_859)"/>
</g>
<path d="M102.961 32.868C99.4068 32.868 96.51 35.5714 96.51 39.2948C96.51 42.9955 99.4068 45.7215 102.961 45.7215C106.517 45.7215 109.413 42.9955 109.413 39.2948C109.412 35.5714 106.515 32.868 102.961 32.868ZM102.961 43.1919C101.013 43.1919 99.3343 41.5856 99.3343 39.2963C99.3343 36.9828 101.015 35.4007 102.961 35.4007C104.909 35.4007 106.588 36.9828 106.588 39.2963C106.588 41.5841 104.909 43.1919 102.961 43.1919ZM88.8865 32.868C85.3323 32.868 82.4355 35.5714 82.4355 39.2948C82.4355 42.9955 85.3323 45.7215 88.8865 45.7215C92.4421 45.7215 95.3389 42.9955 95.3389 39.2948C95.3389 35.5714 92.4421 32.868 88.8865 32.868ZM88.8865 43.1919C86.9387 43.1919 85.2598 41.5856 85.2598 39.2963C85.2598 36.9828 86.9402 35.4007 88.8865 35.4007C90.8343 35.4007 92.5131 36.9828 92.5131 39.2963C92.5147 41.5841 90.8343 43.1919 88.8865 43.1919ZM72.1464 34.8415V37.5676H78.6714C78.4764 39.1014 77.9657 40.2211 77.1859 40.9993C76.237 41.9483 74.7515 42.9955 72.1464 42.9955C68.1299 42.9955 64.9898 39.7572 64.9898 35.7407C64.9898 31.7241 68.1299 28.4858 72.1464 28.4858C74.3133 28.4858 75.8955 29.3381 77.0635 30.4336L78.9872 28.51C77.3552 26.952 75.1898 25.7598 72.1464 25.7598C66.6444 25.7598 62.0189 30.2387 62.0189 35.7407C62.0189 41.2426 66.6444 45.7215 72.1464 45.7215C75.1157 45.7215 77.3567 44.7469 79.1081 42.9215C80.9093 41.1202 81.4699 38.5876 81.4699 36.5431C81.4699 35.9114 81.4216 35.3266 81.3234 34.84H72.1464V34.8415ZM140.612 36.9586C140.077 35.5231 138.445 32.868 135.11 32.868C131.799 32.868 129.047 35.4732 129.047 39.2948C129.047 42.8973 131.775 45.7215 135.426 45.7215C138.371 45.7215 140.075 43.9203 140.783 42.8731L138.591 41.4119C137.862 42.4832 136.863 43.1889 135.426 43.1889C133.99 43.1889 132.967 42.5316 132.31 41.2411L140.903 37.687L140.612 36.9586ZM131.847 39.1014C131.775 36.6171 133.771 35.3523 135.208 35.3523C136.328 35.3523 137.277 35.9129 137.594 36.7153L131.847 39.1014ZM124.861 45.3332H127.684V26.4428H124.861V45.3332ZM120.234 34.3051H120.138C119.505 33.5495 118.287 32.868 116.754 32.868C113.54 32.868 110.595 35.6923 110.595 39.3205C110.595 42.923 113.54 45.7231 116.754 45.7231C118.288 45.7231 119.505 45.0415 120.138 44.2633H120.234V45.1881C120.234 47.6467 118.92 48.9614 116.803 48.9614C115.074 48.9614 114.003 47.7207 113.564 46.6735L111.106 47.6966C111.812 49.3996 113.685 51.494 116.803 51.494C120.114 51.494 122.914 49.5462 122.914 44.7983V33.2594H120.236V34.3051H120.234ZM116.998 43.1919C115.05 43.1919 113.419 41.5599 113.419 39.3205C113.419 37.0553 115.05 35.4007 116.998 35.4007C118.92 35.4007 120.429 37.0553 120.429 39.3205C120.429 41.5599 118.92 43.1919 116.998 43.1919ZM153.84 26.4428H147.084V45.3332H149.902V38.1766H153.839C156.964 38.1766 160.037 35.9144 160.037 32.3104C160.037 28.7064 156.965 26.4428 153.84 26.4428ZM153.913 35.5472H149.902V29.0721H153.913C156.021 29.0721 157.217 30.8175 157.217 32.3104C157.217 33.7732 156.021 35.5472 153.913 35.5472ZM171.339 32.8348C169.297 32.8348 167.183 33.7339 166.308 35.7271L168.811 36.7712C169.346 35.7271 170.343 35.3855 171.387 35.3855C172.845 35.3855 174.328 36.2605 174.352 37.8154V38.0103C173.841 37.7187 172.747 37.282 171.411 37.282C168.714 37.282 165.967 38.7644 165.967 41.5343C165.967 44.0623 168.179 45.6898 170.657 45.6898C172.552 45.6898 173.598 44.8391 174.254 43.8417H174.35V45.2999H177.073V38.0572C177.075 34.7055 174.57 32.8348 171.339 32.8348ZM170.997 43.1874C170.075 43.1874 168.786 42.725 168.786 41.5826C168.786 40.1244 170.391 39.5653 171.777 39.5653C173.015 39.5653 173.599 39.8327 174.352 40.1969C174.133 41.9483 172.626 43.1874 170.997 43.1874ZM186.989 33.2473L183.757 41.4375H183.66L180.306 33.2473H177.268L182.299 44.694L179.431 51.0618H182.371L190.125 33.2473H186.989ZM161.594 45.3332H164.412V26.4428H161.594V45.3332Z" fill="white"/>
<path d="M71.6538 15.4785C71.6538 16.7448 71.2791 17.7527 70.528 18.5052C69.6758 19.3998 68.5636 19.8471 67.1976 19.8471C65.8889 19.8471 64.7752 19.3938 63.861 18.4871C62.9453 17.5789 62.4874 16.4547 62.4874 15.1128C62.4874 13.7694 62.9453 12.6452 63.861 11.7385C64.7752 10.8303 65.8889 10.377 67.1976 10.377C67.8473 10.377 68.4684 10.5039 69.0577 10.7563C69.6486 11.0101 70.1216 11.3471 70.4752 11.7687L69.6788 12.5666C69.0789 11.8488 68.2523 11.4907 67.196 11.4907C66.241 11.4907 65.416 11.8261 64.7193 12.4971C64.0227 13.168 63.6752 14.0399 63.6752 15.1113C63.6752 16.1827 64.0227 17.0546 64.7193 17.7255C65.416 18.3964 66.241 18.7319 67.196 18.7319C68.2085 18.7319 69.0532 18.3949 69.7287 17.7195C70.1669 17.2797 70.4208 16.6677 70.4888 15.8835H67.196V14.794H71.5888C71.6342 15.0312 71.6538 15.2594 71.6538 15.4785Z" fill="white"/>
<path d="M78.6202 11.6917H74.4918V14.5659H78.2152V15.6554H74.4918V18.5295H78.6202V19.6447H73.3268V10.578H78.6202V11.6917Z" fill="white"/>
<path d="M83.5326 19.6447H82.3676V11.6917H79.835V10.578H86.0653V11.6917H83.5326V19.6447Z" fill="white"/>
<path d="M90.5728 19.6447V10.578H91.7379V19.6447H90.5728Z" fill="white"/>
<path d="M96.9046 19.6447H95.7396V11.6917H93.207V10.578H99.4373V11.6917H96.9046V19.6447Z" fill="white"/>
<path d="M111.231 18.4736C110.34 19.3893 109.232 19.8472 107.907 19.8472C106.581 19.8472 105.474 19.3893 104.584 18.4736C103.692 17.5578 103.248 16.4366 103.248 15.1114C103.248 13.7861 103.692 12.6649 104.584 11.7491C105.474 10.8334 106.581 10.374 107.907 10.374C109.224 10.374 110.331 10.8349 111.225 11.7552C112.12 12.6754 112.567 13.7937 112.567 15.1114C112.567 16.4366 112.121 17.5578 111.231 18.4736ZM105.444 17.7135C106.115 18.3935 106.935 18.732 107.907 18.732C108.878 18.732 109.7 18.392 110.37 17.7135C111.041 17.0335 111.378 16.1661 111.378 15.1114C111.378 14.0566 111.041 13.1892 110.37 12.5092C109.7 11.8292 108.878 11.4907 107.907 11.4907C106.935 11.4907 106.115 11.8307 105.444 12.5092C104.774 13.1892 104.437 14.0566 104.437 15.1114C104.437 16.1661 104.774 17.0335 105.444 17.7135Z" fill="white"/>
<path d="M114.202 19.6447V10.578H115.619L120.026 17.6304H120.076L120.026 15.8835V10.578H121.191V19.6447H119.974L115.364 12.2493H115.314L115.364 13.9962V19.6447H114.202Z" fill="white"/>
<path d="M71.6538 15.4785C71.6538 16.7448 71.2791 17.7527 70.528 18.5052C69.6758 19.3998 68.5636 19.8471 67.1976 19.8471C65.8889 19.8471 64.7752 19.3938 63.861 18.4871C62.9453 17.5789 62.4874 16.4547 62.4874 15.1128C62.4874 13.7694 62.9453 12.6452 63.861 11.7385C64.7752 10.8303 65.8889 10.377 67.1976 10.377C67.8473 10.377 68.4684 10.5039 69.0577 10.7563C69.6486 11.0101 70.1216 11.3471 70.4752 11.7687L69.6788 12.5666C69.0789 11.8488 68.2523 11.4907 67.196 11.4907C66.241 11.4907 65.416 11.8261 64.7193 12.4971C64.0227 13.168 63.6752 14.0399 63.6752 15.1113C63.6752 16.1827 64.0227 17.0546 64.7193 17.7255C65.416 18.3964 66.241 18.7319 67.196 18.7319C68.2085 18.7319 69.0532 18.3949 69.7287 17.7195C70.1669 17.2797 70.4208 16.6677 70.4888 15.8835H67.196V14.794H71.5888C71.6342 15.0312 71.6538 15.2594 71.6538 15.4785Z" stroke="white" stroke-width="0.302222" stroke-miterlimit="10"/>
<path d="M78.6202 11.6917H74.4918V14.5659H78.2152V15.6554H74.4918V18.5295H78.6202V19.6447H73.3268V10.578H78.6202V11.6917Z" stroke="white" stroke-width="0.302222" stroke-miterlimit="10"/>
<path d="M83.5326 19.6447H82.3676V11.6917H79.835V10.578H86.0653V11.6917H83.5326V19.6447Z" stroke="white" stroke-width="0.302222" stroke-miterlimit="10"/>
<path d="M90.5728 19.6447V10.578H91.7379V19.6447H90.5728Z" stroke="white" stroke-width="0.302222" stroke-miterlimit="10"/>
<path d="M96.9046 19.6447H95.7396V11.6917H93.207V10.578H99.4373V11.6917H96.9046V19.6447Z" stroke="white" stroke-width="0.302222" stroke-miterlimit="10"/>
<path d="M111.231 18.4736C110.34 19.3893 109.232 19.8472 107.907 19.8472C106.581 19.8472 105.474 19.3893 104.584 18.4736C103.692 17.5578 103.248 16.4366 103.248 15.1114C103.248 13.7861 103.692 12.6649 104.584 11.7491C105.474 10.8334 106.581 10.374 107.907 10.374C109.224 10.374 110.331 10.8349 111.225 11.7552C112.12 12.6754 112.567 13.7937 112.567 15.1114C112.567 16.4366 112.121 17.5578 111.231 18.4736ZM105.444 17.7135C106.115 18.3935 106.935 18.732 107.907 18.732C108.878 18.732 109.7 18.392 110.37 17.7135C111.041 17.0335 111.378 16.1661 111.378 15.1114C111.378 14.0566 111.041 13.1892 110.37 12.5092C109.7 11.8292 108.878 11.4907 107.907 11.4907C106.935 11.4907 106.115 11.8307 105.444 12.5092C104.774 13.1892 104.437 14.0566 104.437 15.1114C104.437 16.1661 104.774 17.0335 105.444 17.7135Z" stroke="white" stroke-width="0.302222" stroke-miterlimit="10"/>
<path d="M114.202 19.6447V10.578H115.619L120.026 17.6304H120.076L120.026 15.8835V10.578H121.191V19.6447H119.974L115.364 12.2493H115.314L115.364 13.9962V19.6447H114.202Z" stroke="white" stroke-width="0.302222" stroke-miterlimit="10"/>
<defs>
<filter id="filter0_ii_171_859" x="15.0701" y="10.7905" width="34.8912" height="38.8672" filterUnits="userSpaceOnUse" color-interpolation-filters="sRGB">
<feFlood flood-opacity="0" result="BackgroundImageFix"/>
<feBlend mode="normal" in="SourceGraphic" in2="BackgroundImageFix" result="shape"/>
<feColorMatrix in="SourceAlpha" type="matrix" values="0 0 0 0 0 0 0 0 0 0 0 0 0 0 0 0 0 0 127 0" result="hardAlpha"/>
<feOffset dy="-0.226667"/>
<feComposite in2="hardAlpha" operator="arithmetic" k2="-1" k3="1"/>
<feColorMatrix type="matrix" values="0 0 0 0 0 0 0 0 0 0 0 0 0 0 0 0 0 0 0.12 0"/>
<feBlend mode="normal" in2="shape" result="effect1_innerShadow_171_859"/>
<feColorMatrix in="SourceAlpha" type="matrix" values="0 0 0 0 0 0 0 0 0 0 0 0 0 0 0 0 0 0 127 0" result="hardAlpha"/>
<feOffset dy="0.226667"/>
<feComposite in2="hardAlpha" operator="arithmetic" k2="-1" k3="1"/>
<feColorMatrix type="matrix" values="0 0 0 0 1 0 0 0 0 1 0 0 0 0 1 0 0 0 0.25 0"/>
<feBlend mode="normal" in2="effect1_innerShadow_171_859" result="effect2_innerShadow_171_859"/>
</filter>
<filter id="filter1_i_171_859" x="15.7698" y="30.2239" width="25.2144" height="19.4338" filterUnits="userSpaceOnUse" color-interpolation-filters="sRGB">
<feFlood flood-opacity="0" result="BackgroundImageFix"/>
<feBlend mode="normal" in="SourceGraphic" in2="BackgroundImageFix" result="shape"/>
<feColorMatrix in="SourceAlpha" type="matrix" values="0 0 0 0 0 0 0 0 0 0 0 0 0 0 0 0 0 0 127 0" result="hardAlpha"/>
<feOffset dy="-0.226667"/>
<feComposite in2="hardAlpha" operator="arithmetic" k2="-1" k3="1"/>
<feColorMatrix type="matrix" values="0 0 0 0 0 0 0 0 0 0 0 0 0 0 0 0 0 0 0.08 0"/>
<feBlend mode="normal" in2="shape" result="effect1_innerShadow_171_859"/>
</filter>
<linearGradient id="paint0_linear_171_859" x1="32.9432" y1="13.1599" x2="7.58372" y2="38.5193" gradientUnits="userSpaceOnUse">
<stop stop-color="#00A0FF"/>
<stop offset="0.0066" stop-color="#00A1FF"/>
<stop offset="0.2601" stop-color="#00BEFF"/>
<stop offset="0.5122" stop-color="#00D2FF"/>
<stop offset="0.7604" stop-color="#00DFFF"/>
<stop offset="1" stop-color="#00E3FF"/>
</linearGradient>
<linearGradient id="paint1_linear_171_859" x1="51.126" y1="30.2235" x2="14.5633" y2="30.2235" gradientUnits="userSpaceOnUse">
<stop stop-color="#FFE000"/>
<stop offset="0.4087" stop-color="#FFBD00"/>
<stop offset="0.7754" stop-color="#FFA500"/>
<stop offset="1" stop-color="#FF9C00"/>
</linearGradient>
<linearGradient id="paint2_linear_171_859" x1="37.5178" y1="33.6902" x2="3.12722" y2="68.0808" gradientUnits="userSpaceOnUse">
<stop stop-color="#FF3A44"/>
<stop offset="1" stop-color="#C31162"/>
</linearGradient>
<linearGradient id="paint3_linear_171_859" x1="11.027" y1="0.266962" x2="26.3834" y2="15.6233" gradientUnits="userSpaceOnUse">
<stop stop-color="#32A071"/>
<stop offset="0.0685" stop-color="#2DA771"/>
<stop offset="0.4762" stop-color="#15CF74"/>
<stop offset="0.8009" stop-color="#06E775"/>
<stop offset="1" stop-color="#00F076"/>
</linearGradient>
</defs>
</svg>
