<svg width="24" height="25" viewBox="0 0 24 25" fill="none" xmlns="http://www.w3.org/2000/svg">
<path d="M19.3 8.51851V13.6685C19.3 16.7485 17.54 18.0685 14.9 18.0685H6.10995C5.65995 18.0685 5.22996 18.0286 4.82996 17.9386C4.57996 17.8986 4.33996 17.8286 4.11996 17.7486C2.61996 17.1886 1.70996 15.8885 1.70996 13.6685V8.51851C1.70996 5.43851 3.46995 4.11855 6.10995 4.11855H14.9C17.14 4.11855 18.75 5.06854 19.18 7.23854C19.25 7.63854 19.3 8.04851 19.3 8.51851Z" stroke="black" stroke-width="1.5" stroke-miterlimit="10" stroke-linecap="round" stroke-linejoin="round"/>
<path d="M22.3011 11.5186V16.6687C22.3011 19.7487 20.5411 21.0686 17.9011 21.0686H9.11105C8.37105 21.0686 7.70106 20.9687 7.12106 20.7487C5.93106 20.3087 5.12105 19.3987 4.83105 17.9387C5.23105 18.0287 5.66105 18.0686 6.11105 18.0686H14.9011C17.5411 18.0686 19.3011 16.7487 19.3011 13.6687V8.51863C19.3011 8.04863 19.2611 7.62866 19.1811 7.23866C21.0811 7.63866 22.3011 8.97863 22.3011 11.5186Z" stroke="black" stroke-width="1.5" stroke-miterlimit="10" stroke-linecap="round" stroke-linejoin="round"/>
<path d="M10.4984 13.7384C11.9564 13.7384 13.1384 12.5564 13.1384 11.0984C13.1384 9.64037 11.9564 8.45839 10.4984 8.45839C9.04038 8.45839 7.8584 9.64037 7.8584 11.0984C7.8584 12.5564 9.04038 13.7384 10.4984 13.7384Z" stroke="black" stroke-width="1.5" stroke-miterlimit="10" stroke-linecap="round" stroke-linejoin="round"/>
<path d="M4.78003 8.89851V13.2985" stroke="black" stroke-width="1.5" stroke-miterlimit="10" stroke-linecap="round" stroke-linejoin="round"/>
<path d="M16.2217 8.89882V13.2988" stroke="black" stroke-width="1.5" stroke-miterlimit="10" stroke-linecap="round" stroke-linejoin="round"/>
</svg>
