<svg width="40" height="40" viewBox="0 0 40 40" fill="none" xmlns="http://www.w3.org/2000/svg">
<circle cx="19.6233" cy="20.3122" r="19.6186" fill="#066BE2" fill-opacity="0.1"/>
<path d="M27.9805 13.862L21.1764 10.1941C20.4602 9.80346 19.592 9.80346 18.8758 10.1941L12.0717 13.862C11.5725 14.1333 11.2687 14.6542 11.2687 15.2511C11.2687 15.8371 11.5725 16.3688 12.0717 16.6401L18.8758 20.308C19.2339 20.5034 19.6355 20.601 20.0261 20.601C20.4168 20.601 20.8183 20.5034 21.1764 20.308L27.9805 16.6401C28.4797 16.3688 28.7836 15.8479 28.7836 15.2511C28.7836 14.6542 28.4797 14.1333 27.9805 13.862Z" fill="#066BE2"/>
<path d="M17.758 21.5777L11.4205 18.409C10.9322 18.1703 10.3679 18.192 9.91212 18.4741C9.44549 18.7671 9.17419 19.2555 9.17419 19.798V25.7774C9.17419 26.8083 9.74934 27.7416 10.6717 28.2082L16.9984 31.377C17.2154 31.4855 17.4542 31.5397 17.6929 31.5397C17.975 31.5397 18.2572 31.4638 18.5068 31.3119C18.9734 31.0297 19.2447 30.5305 19.2447 29.9879V24.0086C19.2556 22.9668 18.6804 22.0335 17.758 21.5777Z" fill="#066BE2"/>
<path d="M30.1398 18.4741C29.6732 18.192 29.1089 18.1594 28.6314 18.409L22.3048 21.5777C21.3824 22.0444 20.8073 22.9668 20.8073 24.0086V29.9879C20.8073 30.5305 21.0785 31.0297 21.5452 31.3119C21.7948 31.4638 22.0769 31.5397 22.3591 31.5397C22.5978 31.5397 22.8365 31.4855 23.0536 31.377L29.3802 28.2082C30.3026 27.7416 30.8778 26.8192 30.8778 25.7774V19.798C30.8778 19.2554 30.6065 18.7671 30.1398 18.4741Z" fill="#066BE2"/>
</svg>
