<svg width="29" height="30" viewBox="0 0 29 30" fill="none" xmlns="http://www.w3.org/2000/svg">
<g clip-path="url(#clip0_78_462)">
<path d="M9.10065 26.4656C19.7479 26.4656 25.5732 17.6423 25.5732 9.99306C25.5732 9.74502 25.5677 9.49146 25.5566 9.24341C26.6898 8.42391 27.6677 7.40884 28.4445 6.2459C27.3891 6.71545 26.2686 7.02211 25.1212 7.15541C26.3293 6.43124 27.2339 5.29361 27.6672 3.9534C26.5307 4.62696 25.2878 5.10209 23.9917 5.35844C23.1185 4.43058 21.9639 3.81622 20.7065 3.61036C19.4491 3.4045 18.1589 3.61859 17.0353 4.21954C15.9118 4.8205 15.0175 5.77483 14.4907 6.93501C13.964 8.09519 13.8341 9.39658 14.1211 10.638C11.8198 10.5225 9.56841 9.92467 7.51295 8.88327C5.45748 7.84186 3.64381 6.38012 2.18952 4.59281C1.45037 5.86719 1.22418 7.3752 1.55694 8.81035C1.8897 10.2455 2.75642 11.5001 3.98097 12.3192C3.06165 12.29 2.16248 12.0425 1.35773 11.5971V11.6688C1.35691 13.0061 1.81925 14.3025 2.66617 15.3375C3.51308 16.3726 4.6923 17.0824 6.00337 17.3463C5.15178 17.5793 4.25799 17.6132 3.39117 17.4455C3.76113 18.5956 4.48093 19.6016 5.45013 20.323C6.41932 21.0443 7.58955 21.4451 8.79749 21.4694C6.74677 23.0802 4.21353 23.954 1.60578 23.9498C1.14332 23.9491 0.681309 23.9208 0.222229 23.8649C2.87142 25.5645 5.95314 26.4672 9.10065 26.4656Z" fill="white"/>
</g>
<defs>
<clipPath id="clip0_78_462">
<rect width="28.2222" height="28.2222" fill="white" transform="translate(0.222229 0.888672)"/>
</clipPath>
</defs>
</svg>
